<?xml version="1.0" encoding="utf-8"?>
<!-- Generator: Adobe Illustrator 15.1.0, SVG Export Plug-In . SVG Version: 6.00 Build 0)  -->
<!DOCTYPE svg PUBLIC "-//W3C//DTD SVG 1.1//EN" "http://www.w3.org/Graphics/SVG/1.1/DTD/svg11.dtd">
<svg version="1.1" id="Artwork" xmlns="http://www.w3.org/2000/svg" xmlns:xlink="http://www.w3.org/1999/xlink" x="0px" y="0px"
	 width="582.308px" height="516.192px" viewBox="0 0 582.308 516.192" enable-background="new 0 0 582.308 516.192"
	 xml:space="preserve">
<path fill="#383D5E" d="M483.312,257.162c0,106.998-86.74,193.739-193.734,193.739C182.58,450.9,95.84,364.16,95.84,257.162
	c0-107,86.74-193.739,193.738-193.739C396.572,63.423,483.312,150.162,483.312,257.162z"/>
<g>
	<path fill="#FFFFFF" d="M175.936,285.438c-8.855-4.32-15.696-10.401-20.519-18.251c-4.825-7.846-7.235-16.955-7.235-27.321
		c0-12.814,3.023-24.333,9.071-34.558c6.047-10.223,14.397-18.284,25.054-24.19c10.654-5.902,22.679-8.855,36.07-8.855
		c11.805,0,22.101,2.161,30.886,6.48c8.782,4.319,15.584,10.404,20.41,18.25c4.823,7.85,7.236,16.955,7.236,27.322
		c0,12.817-2.99,24.335-8.964,34.557c-5.976,10.227-14.329,18.289-25.053,24.19c-10.728,5.906-22.787,8.855-36.177,8.855
		C195.05,291.917,184.792,289.758,175.936,285.438z M226.368,259.195c5.184-3.24,9.213-7.738,12.096-13.499
		c2.878-5.758,4.319-12.382,4.319-19.871c0-7.917-2.305-14.181-6.912-18.79c-4.61-4.606-11.089-6.912-19.438-6.912
		c-6.625,0-12.527,1.62-17.711,4.859c-5.183,3.24-9.217,7.742-12.095,13.5c-2.881,5.76-4.32,12.385-4.32,19.87
		c0,7.921,2.34,14.184,7.02,18.792c4.677,4.61,11.193,6.911,19.546,6.911C215.352,264.055,221.184,262.436,226.368,259.195z"/>
</g>
<path fill="#FFFFFF" d="M386.559,329.322l-46.125,3.137l13.108,12.395c-10.554,8.186-22.692,14.239-35.75,17.761
	c-39.896,10.756-81.893-3.509-106.991-36.342l-18.523,14.16c14.846,19.423,34.932,33.966,58.085,42.056
	c13.282,4.642,27.09,6.971,40.948,6.971c10.899,0,21.83-1.442,32.553-4.333c17.229-4.647,33.156-12.883,46.782-24.101l15.018,14.199
	L386.559,329.322z"/>
<path fill="#FFFFFF" d="M419.861,196.56c-4.537-7.845-10.658-13.856-18.359-18.034c-7.705-4.174-16.091-6.264-25.162-6.264
	c-14.113,0-25.993,4.394-35.638,13.176l2.375-11.447h-31.965l-31.534,158.1c26.37-0.444,36.774-15.512,39.433-28.803l0,0
	l5.708-28.648c7.343,11.521,19.87,17.278,37.581,17.278c11.95,0,22.82-2.915,32.613-8.747c9.791-5.832,17.528-13.894,23.218-24.19
	c5.687-10.293,8.531-21.848,8.531-34.665C426.664,213.66,424.396,204.409,419.861,196.56z M388.219,245.697
	c-2.882,5.761-6.912,10.259-12.095,13.499c-5.184,3.24-11.09,4.86-17.711,4.86c-8.353,0-14.832-2.301-19.438-6.911
	c-4.61-4.607-6.912-10.871-6.912-18.792c0-7.484,1.438-14.109,4.319-19.87c2.879-5.758,6.912-10.26,12.097-13.5
	c5.183-3.239,11.014-4.859,17.494-4.859c8.349,0,14.866,2.306,19.546,6.912c4.677,4.609,7.02,10.873,7.02,18.79
	C392.539,233.315,391.098,239.939,388.219,245.697z"/>
</svg>
